<svg width="16" height="16" viewBox="0 0 16 16" xmlns="http://www.w3.org/2000/svg" fill="currentColor"><path d="M11.624 9.4c.87 0 1.575.704 1.575 1.574v.634c0 .765-.334 1.493-.915 1.992-1.096.94-2.664 1.4-4.687 1.4-2.022 0-3.59-.46-4.683-1.4A2.625 2.625 0 0 1 2 11.61v-.636c0-.87.705-1.575 1.575-1.575h8.05zm0 1.05h-8.05a.525.525 0 0 0-.524.524v.635c0 .46.2.895.548 1.195.88.757 2.208 1.146 4 1.146 1.791 0 3.12-.39 4.002-1.147.349-.3.55-.736.55-1.195v-.634a.525.525 0 0 0-.526-.525zM7.526 1.004L7.598 1c.265 0 .485.198.52.454l.005.071-.001.524h2.45c.87 0 1.575.706 1.575 1.576v3.153c0 .87-.705 1.575-1.575 1.575h-5.95c-.87 0-1.575-.705-1.575-1.575V3.625c0-.87.706-1.575 1.575-1.575h2.45v-.525c0-.266.198-.485.454-.52L7.598 1l-.072.005zM10.572 3.1h-5.95a.525.525 0 0 0-.525.525v3.153c0 .29.235.525.525.525h5.95c.29 0 .525-.235.525-.525V3.625a.525.525 0 0 0-.525-.525zm-4.55 1.05a.875.875 0 1 1 0 1.749.875.875 0 0 1 0-1.75zm3.145 0a.874.874 0 1 1 0 1.748.874.874 0 0 1 0-1.748z"/></svg>