<svg width="16" height="16" viewBox="0 0 16 16" xmlns="http://www.w3.org/2000/svg" fill="currentColor"><path d="M11.667 8a3.667 3.667 0 1 1 0 7.333 3.667 3.667 0 0 1 0-7.333zm-1.651 2.016a.333.333 0 0 0 0 .472l1.18 1.18-1.178 1.177a.333.333 0 1 0 .471.471l1.178-1.177 1.18 1.179a.333.333 0 1 0 .47-.471l-1.178-1.18 1.18-1.18a.333.333 0 1 0-.47-.47l-1.182 1.179-1.18-1.18a.333.333 0 0 0-.471 0zm-2.67 1.317H1.833l-.068.005a.5.5 0 0 0 .068.995h5.551a4.368 4.368 0 0 1-.038-1zm.475-1.666H1.833a.5.5 0 0 1-.068-.996l.068-.004H8.54a4.345 4.345 0 0 0-.719 1zM14.167 6H1.833l-.068.005A.5.5 0 0 0 1.833 7h12.334l.068-.005A.5.5 0 0 0 14.167 6zm0-2.667H1.833l-.068.005a.5.5 0 0 0 .068.995h12.334l.068-.004a.5.5 0 0 0-.068-.996z"/></svg>