<svg width="16" height="16" viewBox="0 0 16 16" xmlns="http://www.w3.org/2000/svg" fill="currentColor"><path d="M13.098 4.176c.525.185.902.685.902 1.274v6A2.55 2.55 0 0 1 11.45 14h-6a1.35 1.35 0 0 1-1.274-.902l1.258.002h6.016a1.65 1.65 0 0 0 1.65-1.65v-6l-.002-.03V4.175zM11.148 2c.746 0 1.35.604 1.35 1.35v7.798a1.35 1.35 0 0 1-1.35 1.35H3.35A1.35 1.35 0 0 1 2 11.148V3.35C2 2.604 2.604 2 3.35 2h7.798zm0 .9H3.35a.45.45 0 0 0-.45.45v7.798c0 .249.201.45.45.45h7.798a.45.45 0 0 0 .45-.45V3.35a.45.45 0 0 0-.45-.45z"/><path d="M9.554 4.877l.056.049a.5.5 0 0 1 .048.65l-.048.057-1.647 1.646L9.61 8.926a.5.5 0 0 1 .048.65l-.048.057a.5.5 0 0 1-.651.048l-.056-.048-1.647-1.647L5.61 9.633a.5.5 0 0 1-.651.048l-.056-.048a.5.5 0 0 1-.049-.651l.049-.056 1.646-1.647-1.646-1.646a.5.5 0 0 1-.049-.651l.049-.056a.5.5 0 0 1 .65-.049l.057.049 1.646 1.646 1.647-1.646a.5.5 0 0 1 .65-.049z"/></svg>