<svg width="16" height="16" viewBox="0 0 16 16" xmlns="http://www.w3.org/2000/svg" fill="currentColor"><path d="M9.74 1.647l-.051-.045a.499.499 0 0 0-.656.045l-.045.051a.503.503 0 0 0 .045.659l1.314 1.318h-4.68l-.156.002a4.342 4.342 0 0 0-4.178 4.347c0 1.127.427 2.154 1.128 2.926l.048.046a.5.5 0 0 0 .72-.689l-.133-.153a3.339 3.339 0 0 1-.763-2.13 3.34 3.34 0 0 1 3.334-3.346h4.587L9.033 5.905l-.045.051a.503.503 0 0 0 .045.659.499.499 0 0 0 .707 0l2.121-2.13.045-.05a.503.503 0 0 0-.045-.659l-2.12-2.129zm3.747 3.4a.5.5 0 0 0-.7.71 3.34 3.34 0 0 1 .88 2.267 3.34 3.34 0 0 1-3.334 3.345H5.705l1.27-1.274.05-.057a.504.504 0 0 0-.005-.601l-.044-.052-.057-.049a.499.499 0 0 0-.6.004l-.05.045-2.122 2.13-.049.056a.504.504 0 0 0 .004.602l.045.051 2.121 2.129.057.049c.195.145.473.13.65-.049a.503.503 0 0 0 .045-.658l-.044-.052-1.267-1.27h4.624l.156-.003a4.342 4.342 0 0 0 4.178-4.346 4.342 4.342 0 0 0-1.132-2.93l-.048-.047z"/></svg>