<svg width="16" height="16" viewBox="0 0 16 16" xmlns="http://www.w3.org/2000/svg" fill="currentColor"><path d="M5.54 6.832a.5.5 0 1 0-.747-.664l-1.334 1.5a.5.5 0 0 0 0 .664l1.334 1.5a.5.5 0 1 0 .747-.664L4.947 8.5h6.106l-.594.668a.5.5 0 1 0 .748.664l1.333-1.5.007-.008a.498.498 0 0 0-.008-.658l-1.332-1.498a.5.5 0 0 0-.748.664l.594.668H4.947l.593-.668z"/><path d="M8.503 2.667v.002H13.5c.645 0 1.167.522 1.167 1.167v8.33c0 .644-.522 1.166-1.167 1.166H7.503v-.001H2.505a1.167 1.167 0 0 1-1.167-1.167v-8.33c0-.644.522-1.167 1.167-1.167h5.998zM13.5 3.67H8.503V7h-1V3.668H2.505a.167.167 0 0 0-.167.167v8.33c0 .092.075.167.167.167h4.998V9h1v3.332H13.5a.167.167 0 0 0 .167-.166v-8.33a.167.167 0 0 0-.167-.167z"/></svg>