<svg width="16" height="17" viewBox="0 0 16 17" xmlns="http://www.w3.org/2000/svg" fill="currentColor"><path d="M13 10.722a2.566 2.566 0 0 1 1.438.867c.177.214.315.458.414.735a2.506 2.506 0 0 1-.047 1.82 2.535 2.535 0 0 1-1.336 1.336c-.302.13-.625.195-.969.195s-.667-.065-.969-.195a2.604 2.604 0 0 1-.797-.531A2.477 2.477 0 0 1 10 13.175a2.463 2.463 0 0 1 .563-1.578 2.71 2.71 0 0 1 .632-.555 2.31 2.31 0 0 1 .805-.32V6.175a1.505 1.505 0 0 0-.914-1.383 1.471 1.471 0 0 0-.586-.117H9.203l1.274 1.274-.704.703L7.29 4.175 9.773 1.7l.704.703-1.274 1.273H10.5a2.444 2.444 0 0 1 1.758.734c.224.23.404.495.539.797.135.302.203.625.203.97v4.546zm-.5 3.953a1.505 1.505 0 0 0 1.383-.914 1.47 1.47 0 0 0 .117-.586 1.506 1.506 0 0 0-.914-1.383 1.472 1.472 0 0 0-.586-.117 1.506 1.506 0 0 0-1.383.914 1.472 1.472 0 0 0-.117.586 1.504 1.504 0 0 0 .914 1.383c.182.078.378.117.586.117zM6.227 10.7l2.484 2.476-2.484 2.477-.704-.703 1.274-1.274H5.5c-.344 0-.667-.065-.969-.195a2.604 2.604 0 0 1-.797-.531A2.477 2.477 0 0 1 3 11.175V6.628a2.564 2.564 0 0 1-1.438-.867 2.505 2.505 0 0 1-.367-2.555 2.507 2.507 0 0 1 1.328-1.328c.308-.135.633-.203.977-.203a2.424 2.424 0 0 1 1.758.735c.224.229.403.494.539.796.135.302.203.625.203.97a2.462 2.462 0 0 1-.563 1.577 2.707 2.707 0 0 1-.632.555 2.309 2.309 0 0 1-.805.32v4.547a1.504 1.504 0 0 0 .914 1.383c.182.078.378.117.586.117h1.297l-1.274-1.273.704-.703zM2 4.175a1.505 1.505 0 0 0 .914 1.383c.182.078.378.117.586.117a1.505 1.505 0 0 0 1.383-.914C4.96 4.58 5 4.383 5 4.175a1.505 1.505 0 0 0-.914-1.383 1.472 1.472 0 0 0-.586-.117 1.505 1.505 0 0 0-1.383.914A1.472 1.472 0 0 0 2 4.175z"/></svg>