<svg width="16" height="16" viewBox="0 0 16 16" xmlns="http://www.w3.org/2000/svg" fill="currentColor"><path d="M3.83 2c-.644 0-1.166.522-1.166 1.167v9.666c0 .645.522 1.167 1.167 1.167h2.333c.644 0 1.167-.522 1.167-1.167V3.167A1.168 1.168 0 0 0 6.164 2H3.831zm-.166 1.167c0-.092.075-.167.167-.167h2.333c.092 0 .167.075.167.167v9.666a.167.167 0 0 1-.167.167H3.831a.167.167 0 0 1-.167-.167V3.167zM9.83 2c-.644 0-1.166.522-1.166 1.167v9.666c0 .645.522 1.167 1.167 1.167h2.333c.644 0 1.167-.522 1.167-1.167V3.167c0-.645-.523-1.167-1.167-1.167H9.831zm-.166 1.167c0-.092.075-.167.167-.167h2.333c.092 0 .167.075.167.167v9.666a.167.167 0 0 1-.167.167H9.831a.167.167 0 0 1-.167-.167V3.167z"/></svg>