<svg width="16" height="16" viewBox="0 0 16 16" xmlns="http://www.w3.org/2000/svg" fill="currentColor"><path d="M9.8 0a.6.6 0 0 1 .594.52l.005.08v.6c.001.488-.147.963-.423 1.364a3 3 0 0 1 2.023 2.788.59.59 0 0 1 .4-.155h.598A1.8 1.8 0 0 0 14.79 3.39l-.005-1.188a.6.6 0 0 1 1.2-.005l.006 1.188a3 3 0 0 1-2.829 3.008l-.171.004h-.59a.598.598 0 0 1-.4-.152v1.354h3.4a.6.6 0 0 1 .082 1.194L15.4 8.8H12v1.6h.19l.171.005a3 3 0 0 1 2.825 2.848l.004.16-.006 1.188a.6.6 0 0 1-1.194.076l-.006-.081.006-1.189a1.8 1.8 0 0 0-1.67-1.802l-.123-.005h-.38a4.002 4.002 0 0 1-7.634 0h-.391A1.798 1.798 0 0 0 2 13.407l.005 1.188a.6.6 0 1 1-1.2.005L.8 13.41a3 3 0 0 1 2.828-3.006l.172-.005H4v-1.6H.6a.6.6 0 0 1-.082-1.194L.6 7.599H4V6.397h-.2l-.172-.004A3 3 0 0 1 .804 3.545L.8 3.385l.005-1.188A.6.6 0 0 1 2 2.119l.005.082L2 3.39a1.8 1.8 0 0 0 1.67 1.802l.123.005h.214a3.002 3.002 0 0 1 2.017-2.634 2.378 2.378 0 0 1-.42-1.194L5.6 1.202V.6A.6.6 0 0 1 6.794.52L6.8.6v.6a1.2 1.2 0 0 0 2.394.117L9.2 1.2V.6a.6.6 0 0 1 .6-.6zM9 3.602H7a1.8 1.8 0 0 0-1.8 1.8V10.4a2.8 2.8 0 1 0 5.6 0v-5A1.8 1.8 0 0 0 9 3.6z"/></svg>