<svg width="16" height="16" viewBox="0 0 16 16" xmlns="http://www.w3.org/2000/svg" fill="currentColor"><path d="M14.52 2.187a.5.5 0 0 0-.707-.707l-1.341 1.34a2.834 2.834 0 0 0-3.642.309l-.712.712a1.167 1.167 0 0 0 0 1.65l2.39 2.39a1.167 1.167 0 0 0 1.65 0l.712-.712a2.834 2.834 0 0 0 .309-3.642l1.341-1.341zm-2.39 1.65l.015.015.001.002.002.001.015.015a1.833 1.833 0 0 1 0 2.593l-.712.712a.167.167 0 0 1-.236 0l-2.39-2.39a.167.167 0 0 1 0-.236l.712-.712a1.833 1.833 0 0 1 2.593 0zM7.187 7.52a.5.5 0 1 0-.707-.707L5.333 7.96l-.313-.314a.5.5 0 0 0-.707 0L3.13 8.83a2.834 2.834 0 0 0-.309 3.642L1.48 13.813a.5.5 0 0 0 .707.707l1.341-1.341a2.834 2.834 0 0 0 3.642-.309l1.184-1.183a.5.5 0 0 0 0-.707l-.314-.313L9.187 9.52a.5.5 0 1 0-.707-.707L7.333 9.96 6.04 8.667 7.187 7.52zm-2.21 1.498l.003.002.002.002 1.996 1.996.002.002.002.002.31.311-.829.83a1.833 1.833 0 0 1-2.593 0l-.033-.033a1.833 1.833 0 0 1 0-2.593l.83-.83.31.311z"/></svg>