<svg width="21" height="20" viewBox="0 0 21 20" xmlns="http://www.w3.org/2000/svg" fill="currentColor"><path d="M12.25.001a.75.75 0 0 1 .743.649l.007.1v.752a2.99 2.99 0 0 1-.53 1.704A3.75 3.75 0 0 1 15 6.691a.738.738 0 0 1 .5-.193h.747a2.25 2.25 0 0 0 2.24-2.26l-.006-1.485a.75.75 0 0 1 1.5-.006l.007 1.485a3.75 3.75 0 0 1-3.536 3.76l-.214.006H15.5a.747.747 0 0 1-.5-.191V9.5h4.251a.75.75 0 0 1 .102 1.493l-.102.007H15v2h.238l.214.006a3.75 3.75 0 0 1 3.531 3.56l.005.2-.007 1.485a.75.75 0 0 1-1.493.096l-.007-.102.007-1.486a2.25 2.25 0 0 0-2.087-2.253l-.154-.006h-.476a5.002 5.002 0 0 1-9.542 0H4.74a2.25 2.25 0 0 0-2.24 2.26l.006 1.485a.75.75 0 1 1-1.5.006L1 16.765a3.75 3.75 0 0 1 3.535-3.759L4.75 13H5v-2H.75a.75.75 0 0 1-.102-1.493L.75 9.5H5V7.997l-.25.001-.215-.006a3.75 3.75 0 0 1-3.53-3.56L1 4.232l.006-1.485A.75.75 0 0 1 2.5 2.65l.006.102L2.5 4.24a2.25 2.25 0 0 0 2.087 2.253l.154.006h.268A3.753 3.753 0 0 1 7.53 3.206a2.973 2.973 0 0 1-.524-1.493L7 1.503V.751A.75.75 0 0 1 8.493.65l.007.1v.752a1.5 1.5 0 0 0 2.993.145l.007-.145V.751a.75.75 0 0 1 .75-.75zm-1 4.502h-2.5a2.25 2.25 0 0 0-2.25 2.25v6.248a3.5 3.5 0 1 0 7 0V6.753a2.25 2.25 0 0 0-2.25-2.25z"/></svg>