<svg width="16" height="16" viewBox="0 0 16 16" xmlns="http://www.w3.org/2000/svg" fill="currentColor"><path d="M1.25 3a.25.25 0 0 0-.25.25v.25a.5.5 0 0 1-1 0v-.25C0 2.56.56 2 1.25 2h.25a.5.5 0 0 1 0 1h-.25zM3 2.5a.5.5 0 0 1 .5-.5h1a.5.5 0 0 1 0 1h-1a.5.5 0 0 1-.5-.5zm3 0a.5.5 0 0 1 .5-.5h.25C7.44 2 8 2.56 8 3.25v.25a.5.5 0 0 1-1 0v-.25A.25.25 0 0 0 6.75 3H6.5a.5.5 0 0 1-.5-.5zm6.854 1.354l-.153.152A3.5 3.5 0 0 1 12.5 11a.5.5 0 0 1 0-1 2.5 2.5 0 0 0 .216-4.99l.138.136a.5.5 0 0 1-.708.708l-1-1a.5.5 0 0 1 0-.708l1-1a.5.5 0 0 1 .708.708zM0 8.5A1.5 1.5 0 0 1 1.5 7h8A1.5 1.5 0 0 1 11 8.5v4A1.5 1.5 0 0 1 9.5 14h-8A1.5 1.5 0 0 1 0 12.5v-4zM1.5 8a.5.5 0 0 0-.5.5v4a.5.5 0 0 0 .5.5h8a.5.5 0 0 0 .5-.5v-4a.5.5 0 0 0-.5-.5h-8zm6-1a.5.5 0 0 1-.5-.5v-1a.5.5 0 0 1 1 0v1a.5.5 0 0 1-.5.5zM1 5.5a.5.5 0 0 0-1 0v1a.5.5 0 0 0 1 0v-1z"/></svg>