<svg width="16" height="16" viewBox="0 0 16 16" xmlns="http://www.w3.org/2000/svg" fill="currentColor"><path d="M8.99 0a2.398 2.398 0 0 1 2.396 2.255l.004.141h1.8a1.4 1.4 0 0 1 1.381 1.168l.015.118.004.115v3h-1.598a1.2 1.2 0 0 0-1.184.993l-.013.104-.004.104a1.2 1.2 0 0 0 .992 1.184l.106.012.102.004h1.6v3a1.4 1.4 0 0 1-1.286 1.396l-.115.004h-1.8l-.004.138a2.4 2.4 0 0 1-2.11 2.242l-.144.013-.142.004a2.4 2.4 0 0 1-2.396-2.256l-.004-.14h-1.8a1.4 1.4 0 0 1-1.38-1.167l-.015-.118-.005-.114v-1.802l-.13-.004a2.4 2.4 0 0 1-2.243-2.11l-.013-.144L1 7.998a2.4 2.4 0 0 1 2.26-2.396l.13-.004V3.797a1.4 1.4 0 0 1 1.167-1.381l.118-.014.115-.005 1.8-.001.004-.137A2.4 2.4 0 0 1 8.704.016L8.85.003 8.99 0zm0 1.2a1.2 1.2 0 0 0-1.194 1.085L7.79 2.4v1.195h-3a.2.2 0 0 0-.194.155l-.006.046v3H3.4a1.2 1.2 0 0 0-.115 2.395l.115.006h1.19l.001 3a.2.2 0 0 0 .155.196l.045.004h3v1.197a1.2 1.2 0 0 0 2.395.116l.005-.115-.001-1.198h3.001a.2.2 0 0 0 .195-.153l.005-.046v-1.802h-.419l-.144-.005a2.403 2.403 0 0 1-2.232-2.273l-.003-.141.005-.144a2.4 2.4 0 0 1 2.255-2.232l.139-.004h.398l.001-1.801a.2.2 0 0 0-.104-.176l-.05-.02-.046-.004-3.001-.001V2.4a1.2 1.2 0 0 0-1.2-1.2z"/></svg>