<svg width="20" height="20" viewBox="0 0 20 20" xmlns="http://www.w3.org/2000/svg" fill="currentColor"><path d="M11 0a2.998 2.998 0 0 1 2.994 2.819l.005.176h2.251c.867 0 1.587.631 1.726 1.46l.018.147.006.144v3.751h-1.998a1.5 1.5 0 0 0-1.48 1.24l-.016.131-.005.13a1.5 1.5 0 0 0 1.24 1.479l.132.015.128.005H18v3.751a1.75 1.75 0 0 1-1.607 1.745l-.143.005h-2.251l-.004.172a3 3 0 0 1-2.638 2.803l-.18.016-.177.005a3 3 0 0 1-2.995-2.82L8 16.998H5.75a1.75 1.75 0 0 1-1.726-1.458l-.018-.148L4 15.25l-.001-2.252-.163-.005a3 3 0 0 1-2.803-2.638l-.016-.18-.005-.177a3 3 0 0 1 2.824-2.995l.163-.005L4 4.746c0-.867.63-1.587 1.458-1.726l.148-.018.144-.006 2.249-.001.006-.171A3 3 0 0 1 10.643.02l.18-.016L11 0zm0 1.5a1.5 1.5 0 0 0-1.493 1.356l-.007.145-.001 1.494H5.75a.25.25 0 0 0-.243.194l-.007.057v3.75l-1.488.001a1.5 1.5 0 0 0-.144 2.993l.144.007H5.5l.001 3.751a.25.25 0 0 0 .193.244l.057.006H9.5l.001 1.496a1.5 1.5 0 0 0 2.993.145l.007-.144-.002-1.497h3.752a.25.25 0 0 0 .243-.192l.007-.057-.001-2.253h-.523l-.18-.006a3.003 3.003 0 0 1-2.79-2.841l-.004-.177.006-.18a3 3 0 0 1 2.819-2.79l.174-.005h.498l.001-2.251a.25.25 0 0 0-.13-.22l-.063-.024-.057-.006-3.752-.001L12.5 3A1.5 1.5 0 0 0 11 1.5z"/></svg>