<svg width="16" height="16" viewBox="0 0 16 16" xmlns="http://www.w3.org/2000/svg" fill="currentColor"><path d="M7.125 9.4c.87 0 1.575.705 1.575 1.575v1.051l-.006.076c-.217 1.489-1.554 2.204-3.797 2.204-2.235 0-3.594-.707-3.887-2.178L1 12.025v-1.05c0-.87.705-1.575 1.575-1.575h4.55zm0 1.05h-4.55a.525.525 0 0 0-.525.525v.994c.196.84 1.085 1.287 2.847 1.287 1.761 0 2.61-.442 2.753-1.27v-1.011a.525.525 0 0 0-.525-.525zM4.85 3.8a2.45 2.45 0 1 1 0 4.9 2.45 2.45 0 0 1 0-4.9zM13.425 1C14.295 1 15 1.705 15 2.575v2.45c0 .87-.705 1.575-1.575 1.575h-1.018L10.89 8.099a.875.875 0 0 1-1.49-.622V6.59A1.575 1.575 0 0 1 8 5.025v-2.45C8 1.705 8.705 1 9.575 1h3.85zM4.85 4.85a1.4 1.4 0 1 0 0 2.8 1.4 1.4 0 0 0 0-2.8zm8.575-2.8h-3.85a.525.525 0 0 0-.525.525v2.45c0 .29.235.525.525.525h.874v1.508l1.526-1.508h1.45c.29 0 .525-.235.525-.525v-2.45a.525.525 0 0 0-.525-.525z"/></svg>