<svg width="20" height="20" viewBox="0 0 20 20" xmlns="http://www.w3.org/2000/svg" fill="currentColor"><path d="M3.503 2.627L3.5 4.75v10.504a3.25 3.25 0 0 0 3.25 3.25h8.616a2.251 2.251 0 0 1-2.122 1.5H6.75A4.75 4.75 0 0 1 2 15.254V4.75c0-.98.627-1.815 1.503-2.123zM11.128 0c.597 0 1.17.237 1.592.66l4.618 4.62c.422.422.659.995.659 1.591v8.383a2.25 2.25 0 0 1-2.25 2.25H6.752a2.25 2.25 0 0 1-2.25-2.25V2.25A2.25 2.25 0 0 1 6.752 0h4.376zM11 1.5H6.752a.75.75 0 0 0-.75.75v13.004c0 .414.336.75.75.75h8.995a.75.75 0 0 0 .75-.75V7.003H13.25a2.25 2.25 0 0 1-2.245-2.095L11 4.754V1.5zm1.5 1.061l.001 2.193c0 .38.282.693.648.743l.102.007 2.19-.001-2.94-2.942z"/></svg>