<svg width="16" height="16" viewBox="0 0 16 16" xmlns="http://www.w3.org/2000/svg" fill="currentColor"><path d="M7.798.005L7.838 0h.073l.09.018.062.025 5.053 2.527a.42.42 0 0 1 0 .752l-4.3 2.15 4.3 2.15a.42.42 0 0 1-.002.755l-4.849 2.39.03 4.81a.421.421 0 0 1-.633.366l-5.053-2.948a.421.421 0 0 1-.209-.364l.002-9.722.015-.082.018-.05.01-.02a.423.423 0 0 1 .051-.079l.056-.055.06-.043L7.728.024l.071-.019zM3.242 8.682v3.707l4.207 2.454-.026-4.054-4.18-2.107zm.52-.68l3.69 1.858-.005-3.688-3.685 1.83zM8.289 6.15l.005 3.662 3.687-1.815L8.289 6.15zM3.242 7.32l3.684-1.83-3.684-1.86v3.69zm4.21-6.217L3.76 2.948l3.687 1.86.005-3.706zm.837 3.692l3.697-1.848L8.294 1.1 8.29 4.794z"/></svg>