<svg width="16" height="16" viewBox="0 0 16 16" xmlns="http://www.w3.org/2000/svg" fill="currentColor"><path d="M8.008 1.5c.49.006.977.062 1.455.169a.5.5 0 0 1 .388.432l.113 1.018a.923.923 0 0 0 1.285.744l.934-.41a.5.5 0 0 1 .566.116 6.528 6.528 0 0 1 1.47 2.528.5.5 0 0 1-.181.55l-.828.61a.92.92 0 0 0 0 1.485l.829.61a.5.5 0 0 1 .18.55 6.53 6.53 0 0 1-1.468 2.529.5.5 0 0 1-.566.116l-.937-.41a.92.92 0 0 0-1.285.742l-.112 1.017a.5.5 0 0 1-.381.432c-.966.23-1.972.23-2.938 0a.5.5 0 0 1-.381-.432l-.113-1.016a.921.921 0 0 0-1.283-.74l-.938.41a.5.5 0 0 1-.566-.116 6.532 6.532 0 0 1-1.469-2.53.5.5 0 0 1 .181-.551l.83-.61a.92.92 0 0 0-.001-1.485l-.828-.61a.5.5 0 0 1-.182-.55 6.529 6.529 0 0 1 1.47-2.528.5.5 0 0 1 .566-.116l.934.41a.925.925 0 0 0 1.287-.745L6.152 2.1a.5.5 0 0 1 .389-.432A7.11 7.11 0 0 1 8.008 1.5zm0 1a6.09 6.09 0 0 0-.903.078l-.072.651A1.924 1.924 0 0 1 4.35 4.78l-.599-.263a5.528 5.528 0 0 0-.898 1.545l.531.392a1.92 1.92 0 0 1 0 3.095l-.532.392c.214.561.517 1.084.899 1.548l.603-.265a1.921 1.921 0 0 1 2.678 1.545l.073.656a5.337 5.337 0 0 0 1.792 0l.073-.655a1.92 1.92 0 0 1 2.679-1.549l.603.264a5.53 5.53 0 0 0 .898-1.545l-.532-.392a1.92 1.92 0 0 1 0-3.095l.53-.391a5.529 5.529 0 0 0-.898-1.545l-.598.262A1.922 1.922 0 0 1 8.97 3.23l-.072-.651a5.993 5.993 0 0 0-.89-.078zM8 5.5a2.5 2.5 0 1 1 0 5 2.5 2.5 0 0 1 0-5zm0 1a1.5 1.5 0 1 0 0 3 1.5 1.5 0 0 0 0-3z"/></svg>