<svg width="16" height="16" viewBox="0 0 16 16" xmlns="http://www.w3.org/2000/svg" fill="currentColor"><path d="M13.74 3.182c.651.78.976 1.69.976 2.73 0 3.772-2.145 4.877-4.16 5.202.26.455.324.975.324 1.495v2.665c0 .326-.195.52-.455.52a.513.513 0 0 1-.52-.52V12.61a1.784 1.784 0 0 0-.52-1.495l.325-.845c2.015-.26 4.096-.91 4.096-4.421 0-.845-.325-1.625-.91-2.276l-.13-.52c.26-.65.26-1.365.065-1.95-.325.065-.975.195-2.08.975l-.39.065a9.508 9.508 0 0 0-4.682 0l-.39-.065c-1.17-.715-1.82-.91-2.145-.91-.195.65-.195 1.365.065 1.95l-.13.52c-.65.65-.975 1.496-.975 2.276 0 3.445 1.95 4.16 4.096 4.42l.26.846c-.39.39-.586.91-.52 1.43v2.731c0 .26-.196.52-.52.52a.513.513 0 0 1-.52-.52v-1.496c-2.146.455-2.991-.65-3.641-1.495-.325-.39-.585-.715-.91-.78-.066-.065-.26-.325-.196-.585.065-.26.326-.455.586-.325.65.13 1.04.65 1.43 1.105.585.78 1.17 1.495 2.925 1.105v-.26c-.065-.52.065-1.04.325-1.495-1.95-.39-4.225-1.495-4.225-5.201 0-1.04.325-1.95.975-2.73-.195-.91-.13-1.886.195-2.666l.325-.26c.13-.065 1.04-.26 2.925.91a9.77 9.77 0 0 1 4.746 0c1.82-1.235 2.796-1.04 2.926-.975l.325.26c.325.91.39 1.82.13 2.73z"/><path fill-rule="evenodd" clip-rule="evenodd" d="M12.484.33c-.465.093-1.147.344-2.045.953l-.113.02a9.63 9.63 0 0 0-4.678 0l-.108-.017C4.61.708 3.926.472 3.468.386a2.1 2.1 0 0 0-.523-.039.932.932 0 0 0-.183.031L2.48.604c-.301.745-.361 1.676-.174 2.549l-.03.12c-.628.753-.942 1.632-.942 2.64 0 1.821.558 2.985 1.339 3.743.785.761 1.811 1.128 2.774 1.32l.094.207c-.247.434-.368.923-.307 1.409v.277l-.11.137c-.898.2-1.52.121-1.996-.126-.47-.244-.778-.641-1.069-1.028a36.679 36.679 0 0 1-.093-.11c-.365-.43-.71-.837-1.255-.946l-.035-.012a.225.225 0 0 0-.23.01.37.37 0 0 0-.156.224.419.419 0 0 0 .04.273.7.7 0 0 0 .094.151c.18.048.334.159.476.293a5.607 5.607 0 0 1 .466.524l.004.004c.327.425.685.89 1.219 1.2.526.305 1.238.465 2.281.244l.17.137v1.496c0 .236.185.38.38.38.236 0 .38-.186.38-.38v-2.722c-.065-.537.125-1.069.501-1.477l-.209-.68c-1.046-.133-2.069-.385-2.836-1.036-.796-.677-1.293-1.762-1.293-3.512 0-.807.331-1.675.99-2.347l.108-.437c-.257-.613-.249-1.344-.051-2.002l.134-.1c.188 0 .45.055.807.196.355.14.81.368 1.388.72L5.674 2a9.645 9.645 0 0 1 4.692 0l.33-.055c1.108-.777 1.77-.912 2.107-.98l.16.094a3.02 3.02 0 0 1-.05 2.004l.11.443c.592.668.923 1.471.923 2.343 0 1.785-.53 2.87-1.343 3.538-.783.642-1.806.878-2.792 1.01l-.263.685c.375.41.561.943.498 1.536v2.657c0 .237.185.38.38.38a.29.29 0 0 0 .22-.092.417.417 0 0 0 .094-.287V12.61c0-.51-.064-1.002-.306-1.426l.099-.208c.993-.16 2-.51 2.76-1.269.755-.756 1.283-1.936 1.283-3.793 0-1.008-.314-1.887-.943-2.64l-.027-.13c.247-.865.191-1.733-.114-2.607l-.279-.222-.004-.002a.984.984 0 0 0-.187-.029 2.18 2.18 0 0 0-.538.046zm.554-.327a.868.868 0 0 1 .31.063l.025.016.325.26.045.063c.325.91.398 1.826.153 2.745.64.793.96 1.716.96 2.763 0 1.913-.545 3.171-1.365 3.992-.767.767-1.76 1.136-2.724 1.315.203.44.254.922.254 1.39v2.665c0 .19-.058.356-.167.476a.57.57 0 0 1-.429.184.653.653 0 0 1-.66-.66v-2.681a1.643 1.643 0 0 0-.48-1.381l-.03-.15.324-.845.113-.088c1.004-.13 1.993-.354 2.733-.961.73-.6 1.24-1.595 1.24-3.321 0-.807-.31-1.555-.874-2.182l-.031-.06-.13-.52.005-.086a2.76 2.76 0 0 0 .099-1.735c-.342.075-.946.251-1.903.927l-.058.024-.39.065-.057-.003a9.368 9.368 0 0 0-4.613 0l-.057.003-.39-.065-.05-.02c-.58-.354-1.028-.577-1.368-.712a2.496 2.496 0 0 0-.6-.17c-.156.596-.14 1.23.09 1.746l.007.091-.13.52-.037.066c-.624.624-.934 1.433-.934 2.176 0 1.695.479 2.69 1.194 3.298.723.614 1.71.854 2.778.983l.118.098.26.845-.035.141c-.363.363-.54.84-.48 1.314v2.747a.653.653 0 0 1-.66.661.653.653 0 0 1-.66-.66v-1.325c-1.014.183-1.747.018-2.311-.31-.583-.337-.97-.84-1.291-1.258l-.008-.01-.033-.04a5.45 5.45 0 0 0-.409-.458c-.138-.13-.26-.207-.386-.232l-.072-.039a.965.965 0 0 1-.174-.26.696.696 0 0 1-.058-.458.65.65 0 0 1 .282-.395.505.505 0 0 1 .485-.03c.635.134 1.04.613 1.39 1.028l.101.12.006.007c.294.392.57.74.976.95.384.2.903.285 1.697.125v-.137a2.514 2.514 0 0 1 .254-1.405c-.937-.208-1.942-.59-2.73-1.356-.845-.819-1.425-2.06-1.425-3.944 0-1.049.322-1.974.965-2.768-.183-.915-.113-1.891.216-2.682l.042-.056.325-.26.025-.016a.849.849 0 0 1 .3-.064c.146-.01.343-.003.593.044.492.091 1.19.336 2.119.906a9.91 9.91 0 0 1 4.695-.001C11.231.415 11.93.154 12.43.054c.255-.05.458-.06.61-.051z"/></svg>