<svg width="16" height="16" viewBox="0 0 16 16" xmlns="http://www.w3.org/2000/svg" fill="currentColor"><path d="M4.8 1.6a1.6 1.6 0 0 0-1.6 1.6v5.6H4V3.2a.8.8 0 0 1 .8-.8H8v2.8a1.2 1.2 0 0 0 1.2 1.2H12v6.4a.8.8 0 0 1-.8.8H9.395c-.1.285-.236.553-.401.8H11.2a1.6 1.6 0 0 0 1.6-1.6V5.931a1.2 1.2 0 0 0-.352-.848L9.319 1.95a1.2 1.2 0 0 0-.85-.351H4.8zm7.034 4H9.2a.4.4 0 0 1-.4-.4V2.566L11.834 5.6zM4 10a.4.4 0 0 0-.4-.4l-.154.004A2.8 2.8 0 0 0 3.6 15.2l.072-.006A.4.4 0 0 0 3.6 14.4l-.132-.004A2 2 0 0 1 3.6 10.4l.072-.006A.4.4 0 0 0 4 10zm4.8 2.4A2.8 2.8 0 0 0 6 9.6l-.072.006A.4.4 0 0 0 6 10.4l.131.004A2 2 0 0 1 6 14.4l-.002.004-.072.007a.4.4 0 0 0 .076.793V15.2l.153-.004A2.8 2.8 0 0 0 8.8 12.4zM6 12.002L3.6 12l-.072.006a.4.4 0 0 0 .072.794l2.4.002.072-.007A.4.4 0 0 0 6 12.002z"/></svg>