<svg width="24" height="24" viewBox="0 0 24 24" xmlns="http://www.w3.org/2000/svg" fill="currentColor"><path d="M8.75 13A2.25 2.25 0 0 1 11 15.25v3.5A2.25 2.25 0 0 1 8.75 21h-3.5A2.25 2.25 0 0 1 3 18.75v-3.5A2.25 2.25 0 0 1 5.25 13h3.5zm10 0A2.25 2.25 0 0 1 21 15.25v3.5A2.25 2.25 0 0 1 18.75 21h-3.5A2.25 2.25 0 0 1 13 18.75v-3.5A2.25 2.25 0 0 1 15.25 13h3.5zm-10 1.5h-3.5a.75.75 0 0 0-.75.75v3.5c0 .414.336.75.75.75h3.5a.75.75 0 0 0 .75-.75v-3.5a.75.75 0 0 0-.75-.75zm10 0h-3.5a.75.75 0 0 0-.75.75v3.5c0 .414.336.75.75.75h3.5a.75.75 0 0 0 .75-.75v-3.5a.75.75 0 0 0-.75-.75zM8.75 3A2.25 2.25 0 0 1 11 5.25v3.5A2.25 2.25 0 0 1 8.75 11h-3.5A2.25 2.25 0 0 1 3 8.75v-3.5A2.25 2.25 0 0 1 5.25 3h3.5zm10 0A2.25 2.25 0 0 1 21 5.25v3.5A2.25 2.25 0 0 1 18.75 11h-3.5A2.25 2.25 0 0 1 13 8.75v-3.5A2.25 2.25 0 0 1 15.25 3h3.5zm-10 1.5h-3.5a.75.75 0 0 0-.75.75v3.5c0 .414.336.75.75.75h3.5a.75.75 0 0 0 .75-.75v-3.5a.75.75 0 0 0-.75-.75zm10 0h-3.5a.75.75 0 0 0-.75.75v3.5c0 .414.336.75.75.75h3.5a.75.75 0 0 0 .75-.75v-3.5a.75.75 0 0 0-.75-.75z"/></svg>