<svg width="16" height="16" viewBox="0 0 16 16" xmlns="http://www.w3.org/2000/svg" fill="currentColor"><path d="M12.333 13.333a.334.334 0 0 1-.333.334H8.179a4.346 4.346 0 0 1-.719 1H12c.736 0 1.333-.598 1.333-1.334V6.552c0-.353-.14-.693-.39-.943L9.057 1.724a.278.278 0 0 0-.033-.027.42.42 0 0 1-.024-.02 1.383 1.383 0 0 0-.146-.12.435.435 0 0 0-.054-.029l-.031-.016-.034-.02a1.032 1.032 0 0 0-.11-.057 1.318 1.318 0 0 0-.416-.092l-.04-.005c-.018-.002-.036-.005-.054-.005H4c-.736 0-1.333.598-1.333 1.334v4.998a4.3 4.3 0 0 1 1-.28V2.666c0-.184.149-.334.333-.334h4v3c0 .736.597 1.334 1.333 1.334h3v6.666zM9 3.081l2.585 2.586H9.333A.334.334 0 0 1 9 5.333V3.081z"/><path d="M8 11.667a3.667 3.667 0 1 0-7.333 0 3.667 3.667 0 0 0 7.333 0zM4.667 12v1.669a.333.333 0 0 1-.666 0V12H2.33a.333.333 0 0 1 0-.667H4V9.666a.333.333 0 1 1 .667 0v1.667h1.664a.333.333 0 0 1 0 .667H4.667z"/></svg>