<svg width="16" height="16" viewBox="0 0 16 16" xmlns="http://www.w3.org/2000/svg" fill="currentColor"><path d="M11.667 7.333a3.667 3.667 0 1 1 0 7.334 3.667 3.667 0 0 1 0-7.334zm0 1.333l-.06.006a.334.334 0 0 0-.268.268l-.006.06v1.666H9.665l-.06.006a.333.333 0 0 0-.268.268l-.005.06.005.06a.333.333 0 0 0 .268.268l.06.005h1.669v1.67l.005.06a.333.333 0 0 0 .268.267l.06.006.06-.006a.334.334 0 0 0 .268-.268l.006-.06v-1.67l1.669.001.06-.005a.333.333 0 0 0 .268-.268l.005-.06-.005-.06a.333.333 0 0 0-.268-.268l-.06-.005H12V8.998l-.005-.06a.334.334 0 0 0-.268-.267l-.06-.006zm-6.196-6a1.5 1.5 0 0 1 .856.269l.105.08 1.583 1.318h5.152a1.5 1.5 0 0 1 1.485 1.292l.011.106.004.102v2.04a4.343 4.343 0 0 0-1-.718V5.833a.5.5 0 0 0-.432-.495l-.068-.005H8.014l-1.582 1.32a1.5 1.5 0 0 1-.83.341L5.472 7h-3.14v4.833a.5.5 0 0 0 .432.496l.068.004h4.71c.114.357.274.692.472 1.001H2.833a1.5 1.5 0 0 1-1.496-1.398l-.004-.103V4.167A1.5 1.5 0 0 1 2.731 2.67l.102-.003h2.638zm0 1H2.833a.5.5 0 0 0-.495.433l-.005.068v1.832L5.471 6a.5.5 0 0 0 .264-.075l.056-.04 1.261-1.052-1.26-1.05a.5.5 0 0 0-.251-.111l-.07-.005z"/></svg>