<svg width="20" height="20" viewBox="0 0 20 20" xmlns="http://www.w3.org/2000/svg" fill="currentColor"><path d="M15.754 12a2.249 2.249 0 0 1 2.249 2.249v.575c0 .895-.32 1.76-.901 2.439C15.532 19.096 13.145 20 10 20c-3.146 0-5.532-.905-7.098-2.74a3.75 3.75 0 0 1-.898-2.434v-.578a2.249 2.249 0 0 1 2.248-2.25h11.502zm0 1.5H4.252a.749.749 0 0 0-.748.749v.577c0 .536.19 1.054.539 1.462C5.296 17.755 7.262 18.5 10 18.5s4.706-.746 5.962-2.214a2.25 2.25 0 0 0 .541-1.463v-.575a.749.749 0 0 0-.749-.75zM10 .005a5 5 0 1 1 0 10 5 5 0 0 1 0-10zm0 1.5a3.5 3.5 0 1 0 0 7 3.5 3.5 0 0 0 0-7z"/></svg>