<svg width="16" height="16" viewBox="0 0 16 16" xmlns="http://www.w3.org/2000/svg" fill="currentColor"><path d="M4.063 15.126a.563.563 0 0 1-.077-1.12L4.063 14h1.312v-1.874H2.188a1.688 1.688 0 0 1-1.684-1.572L.5 10.439V2.562c0-.893.694-1.624 1.572-1.684l.116-.004h11.624c.894 0 1.625.694 1.684 1.572l.004.116v7.877c0 .893-.694 1.624-1.572 1.684l-.116.004h-3.187V14h1.313a.563.563 0 0 1 .076 1.12l-.076.006H4.063zm5.436-3h-3v1.875h3v-1.874zM13.812 2H2.188a.563.563 0 0 0-.558.487l-.005.076v7.877c0 .285.212.52.486.558l.077.005h11.624c.285 0 .52-.212.558-.487l.005-.076V2.562a.563.563 0 0 0-.486-.557l-.077-.006z"/></svg>