<svg width="16" height="16" viewBox="0 0 16 16" xmlns="http://www.w3.org/2000/svg" fill="currentColor"><path fill-rule="evenodd" clip-rule="evenodd" d="M6.95 3a2.95 2.95 0 1 1-5.9 0 2.95 2.95 0 0 1 5.9 0zM4 4.75a1.75 1.75 0 1 0 0-3.5 1.75 1.75 0 0 0 0 3.5zm2.95 8a2.95 2.95 0 1 1-5.9 0 2.95 2.95 0 0 1 5.9 0zM4 14.498A1.75 1.75 0 1 0 4 11a1.75 1.75 0 0 0 0 3.5zM12.6 6a3.1 3.1 0 0 1-3.1 3.1h-5V7.9h5A1.9 1.9 0 0 0 11.4 6h1.2z"/><path fill-rule="evenodd" clip-rule="evenodd" d="M14.95 4a2.95 2.95 0 1 1-5.9 0 2.95 2.95 0 0 1 5.9 0zM12 5.75a1.75 1.75 0 1 0 0-3.5 1.75 1.75 0 0 0 0 3.5zM3.5 11V5h1.2v6H3.5z"/></svg>