<svg width="16" height="16" viewBox="0 0 16 16" xmlns="http://www.w3.org/2000/svg" fill="currentColor"><path d="M7.69 0a8.702 8.702 0 0 1 1.79.208.615.615 0 0 1 .478.532l.14 1.253a1.135 1.135 0 0 0 1.581.916l1.149-.505a.615.615 0 0 1 .697.143 8.034 8.034 0 0 1 1.809 3.111.615.615 0 0 1-.223.678l-1.019.75a1.132 1.132 0 0 0 .001 1.827l1.02.751a.615.615 0 0 1 .223.678 8.038 8.038 0 0 1-1.809 3.111.615.615 0 0 1-.696.144l-1.153-.505a1.133 1.133 0 0 0-1.582.913l-.138 1.252a.615.615 0 0 1-.47.53 7.809 7.809 0 0 1-3.615 0 .615.615 0 0 1-.47-.53l-.137-1.25a1.134 1.134 0 0 0-1.58-.911l-1.154.505a.615.615 0 0 1-.697-.144 8.04 8.04 0 0 1-1.807-3.114.615.615 0 0 1 .222-.678l1.02-.752a1.133 1.133 0 0 0 0-1.826l-1.02-.75a.615.615 0 0 1-.222-.678 8.035 8.035 0 0 1 1.808-3.111.615.615 0 0 1 .698-.143l1.148.505a1.138 1.138 0 0 0 1.584-.918L5.406.74a.615.615 0 0 1 .478-.532A8.747 8.747 0 0 1 7.69 0zm0 1.23a7.496 7.496 0 0 0-1.111.097l-.09.801a2.368 2.368 0 0 1-3.301 1.909l-.737-.323a6.805 6.805 0 0 0-1.106 1.9l.654.483a2.364 2.364 0 0 1 0 3.81l-.655.482c.262.69.637 1.334 1.106 1.905l.742-.326A2.363 2.363 0 0 1 6.49 13.87l.09.808c.73.123 1.475.123 2.205 0l.09-.808a2.363 2.363 0 0 1 3.297-1.905l.742.325c.47-.57.843-1.212 1.106-1.902l-.655-.483a2.364 2.364 0 0 1 0-3.808l.653-.483a6.804 6.804 0 0 0-1.106-1.901l-.735.322a2.367 2.367 0 0 1-3.301-1.907l-.09-.8a7.376 7.376 0 0 0-1.094-.096L7.69 1.23zm-.01 3.693a3.077 3.077 0 1 1 0 6.154 3.077 3.077 0 0 1 0-6.154zm0 1.231a1.846 1.846 0 1 0 0 3.692 1.846 1.846 0 0 0 0-3.692z"/></svg>