<svg width="20" height="20" viewBox="0 0 20 20" xmlns="http://www.w3.org/2000/svg" fill="currentColor"><path d="M10.012.25c.734.009 1.466.093 2.182.253a.75.75 0 0 1 .582.649l.17 1.527a1.384 1.384 0 0 0 1.928 1.116l1.4-.615a.75.75 0 0 1 .85.174 9.793 9.793 0 0 1 2.204 3.792.75.75 0 0 1-.271.826l-1.242.915a1.38 1.38 0 0 0 .001 2.226l1.242.915a.75.75 0 0 1 .272.826 9.798 9.798 0 0 1-2.204 3.792.75.75 0 0 1-.848.175l-1.406-.616a1.381 1.381 0 0 0-1.927 1.113l-.169 1.526a.75.75 0 0 1-.572.647 9.515 9.515 0 0 1-4.406 0 .75.75 0 0 1-.572-.646l-.168-1.525a1.382 1.382 0 0 0-1.925-1.11l-1.407.616a.75.75 0 0 1-.849-.175 9.798 9.798 0 0 1-2.203-3.796.75.75 0 0 1 .271-.826l1.243-.916a1.381 1.381 0 0 0 0-2.226L.945 7.973a.75.75 0 0 1-.271-.826 9.793 9.793 0 0 1 2.204-3.792.75.75 0 0 1 .85-.174l1.4.615a1.387 1.387 0 0 0 1.93-1.118l.17-1.526a.75.75 0 0 1 .583-.649A10.66 10.66 0 0 1 10.012.25zm0 1.5a9.137 9.137 0 0 0-1.354.117l-.109.977A2.886 2.886 0 0 1 4.525 5.17l-.898-.394a8.293 8.293 0 0 0-1.348 2.317l.798.587a2.881 2.881 0 0 1 0 4.643l-.799.588c.32.842.776 1.626 1.348 2.322l.905-.397a2.882 2.882 0 0 1 4.017 2.318l.11.984c.889.15 1.798.15 2.687 0l.11-.984a2.881 2.881 0 0 1 4.018-2.322l.905.396a8.299 8.299 0 0 0 1.347-2.318l-.798-.588a2.881 2.881 0 0 1 0-4.642l.796-.588a8.293 8.293 0 0 0-1.348-2.317l-.896.393a2.884 2.884 0 0 1-4.023-2.324l-.11-.976a8.99 8.99 0 0 0-1.333-.117zM10 6.25a3.75 3.75 0 1 1 0 7.5 3.75 3.75 0 0 1 0-7.5zm0 1.5a2.25 2.25 0 1 0 0 4.5 2.25 2.25 0 0 0 0-4.5z"/></svg>