<svg width="16" height="16" viewBox="0 0 16 16" xmlns="http://www.w3.org/2000/svg" fill="currentColor"><path d="M4.953 2.216A.85.85 0 0 1 5.77 1.6h4.2c.58 0 .989.568.805 1.119l-.002.006L9.764 5.6h2.051c.757 0 1.126.915.614 1.45l-.003.002-6.942 7.086c-.603.626-1.647.048-1.436-.796l.936-3.743H3.97a.85.85 0 0 1-.817-1.084l1.8-6.299zm.817.184a.05.05 0 0 0-.048.036l-1.8 6.3a.05.05 0 0 0 .048.063h1.526a.4.4 0 0 1 .388.497l-1.06 4.24a.068.068 0 0 0-.002.023l.002.01c.003.005.01.015.025.023a.058.058 0 0 0 .033.008.027.027 0 0 0 .008-.003.067.067 0 0 0 .019-.014l.003-.003 6.94-7.086a.045.045 0 0 0 .014-.025.068.068 0 0 0-.006-.036.062.062 0 0 0-.02-.026c-.004-.003-.01-.007-.025-.007H9.2a.4.4 0 0 1-.377-.532l1.194-3.404a.05.05 0 0 0-.048-.064h-4.2z"/></svg>