<svg width="16" height="16" viewBox="0 0 16 16" xmlns="http://www.w3.org/2000/svg" fill="currentColor"><path d="M8.33 1.225A2.5 2.5 0 0 0 4.81 3.34L4.698 5H3.5a.5.5 0 0 0 0 1h1.132l-.44 6.595a1.5 1.5 0 0 1-2.112 1.268l-.375-.169a.5.5 0 1 0-.41.912l.375.169a2.5 2.5 0 0 0 3.52-2.114L5.634 6H7.5a.5.5 0 0 0 0-1H5.7l.107-1.595A1.5 1.5 0 0 1 7.92 2.137l.376.169a.5.5 0 1 0 .41-.912l-.375-.169z"/><path d="M8.16 8.048a.25.25 0 0 1 .393.053l1.323 2.315-2.73 2.73a.5.5 0 0 0 .708.708l2.537-2.537 1.188 2.079a1.25 1.25 0 0 0 1.969.263l.306-.305a.5.5 0 0 0-.708-.707l-.305.305a.25.25 0 0 1-.394-.053l-1.323-2.315 2.73-2.73a.5.5 0 1 0-.707-.708l-2.538 2.538-1.188-2.08a1.25 1.25 0 0 0-1.969-.263l-.306.305a.5.5 0 1 0 .708.708l.305-.306z"/></svg>