<svg width="14" height="14" viewBox="0 0 14 14" xmlns="http://www.w3.org/2000/svg" fill="currentColor"><path d="M4.11 4.41a.438.438 0 0 0-.345.805l2.797 1.198v2.775a.437.437 0 1 0 .875 0V6.413l2.798-1.198a.437.437 0 1 0-.345-.805L7 5.65 4.11 4.41zm3.832-3.204a2.625 2.625 0 0 0-1.884 0l-4.342 1.67a1.312 1.312 0 0 0-.841 1.225v5.798c0 .543.334 1.03.841 1.225l4.342 1.67a2.626 2.626 0 0 0 1.884 0l4.342-1.67c.506-.195.841-.682.841-1.225V4.101c0-.543-.335-1.03-.841-1.225l-4.342-1.67zm-1.57.817a1.75 1.75 0 0 1 1.256 0l4.342 1.67c.168.065.28.227.28.408v5.798a.437.437 0 0 1-.28.408l-4.342 1.67a1.75 1.75 0 0 1-1.256 0l-4.342-1.67a.437.437 0 0 1-.28-.408V4.101c0-.181.111-.343.28-.408l4.342-1.67z"/></svg>