<svg width="16" height="16" viewBox="0 0 16 16" xmlns="http://www.w3.org/2000/svg" fill="currentColor"><path fill-rule="evenodd" clip-rule="evenodd" d="M4.101 7.59l1.438-4.285A1.914 1.914 0 0 1 7.354 2h2.14a1.915 1.915 0 0 1 1.825 2.495l-.19.597c.904.502 1.308 1.71.694 2.692l-3.568 5.711c-1.2 1.922-4.154.533-3.441-1.617l.607-1.829A1.916 1.916 0 0 1 4.1 7.59zm1.7 1.314a.724.724 0 0 0 .115.009h1.146l-1.11 3.343c-.265.802.837 1.32 1.285.604l3.568-5.712a.711.711 0 0 0-.063-.843.704.704 0 0 0-.543-.25h-.636l.612-1.924a.714.714 0 0 0-.68-.931H7.353a.714.714 0 0 0-.678.487L5.24 7.971a.715.715 0 0 0 .562.933z"/></svg>