<svg width="16" height="16" viewBox="0 0 16 16" xmlns="http://www.w3.org/2000/svg" fill="currentColor"><path d="M8.442 2.118a.857.857 0 0 0-.866 0L2.424 5.135a.857.857 0 0 0 .001 1.48l5.152 3.003a.857.857 0 0 0 .864 0l5.151-3.002a.857.857 0 0 0 .002-1.481L8.442 2.118zm-.866.993a.857.857 0 0 1 .866 0l4.719 2.764-4.72 2.751a.857.857 0 0 1-.864 0l-4.72-2.751L7.576 3.11zM2.069 7.72l5.52 3.106c.26.147.58.147.84 0l5.52-3.106a.857.857 0 0 1-.357 1.08l-5.151 3.003a.857.857 0 0 1-.864 0L2.425 8.8a.857.857 0 0 1-.356-1.08zm0 2.103l5.52 3.106c.26.147.58.147.84 0l5.52-3.106a.857.857 0 0 1-.357 1.08l-5.151 3.003a.857.857 0 0 1-.864 0l-5.152-3.003a.857.857 0 0 1-.356-1.08z"/></svg>