<svg width="16" height="16" viewBox="0 0 16 16" xmlns="http://www.w3.org/2000/svg" fill="currentColor"><path d="M3.7 5.156a.5.5 0 0 1 .644-.29l3.323 1.26 3.322-1.26a.5.5 0 1 1 .355.935L8.167 7.006v3.66a.5.5 0 1 1-1 0v-3.66L3.989 5.801a.5.5 0 0 1-.29-.645z"/><path d="M6.727 1.508a2.5 2.5 0 0 1 1.879 0l4.999 2.027c.44.178.728.606.728 1.08v6.436c0 .475-.288.903-.728 1.081l-5 2.027a2.5 2.5 0 0 1-1.878 0l-4.999-2.027A1.167 1.167 0 0 1 1 11.051V4.616c0-.475.288-.903.728-1.081l5-2.027zm1.503.927a1.5 1.5 0 0 0-1.127 0L2.104 4.46A.167.167 0 0 0 2 4.616v6.435c0 .068.041.129.104.155l5 2.026a1.5 1.5 0 0 0 1.126 0l5-2.026a.167.167 0 0 0 .103-.155V4.616a.167.167 0 0 0-.104-.155L8.23 2.435z"/></svg>