<svg width="16" height="16" viewBox="0 0 16 16" xmlns="http://www.w3.org/2000/svg" fill="currentColor"><path d="M9.6 11.2a1.6 1.6 0 0 1 1.6-1.6h2.4a1.6 1.6 0 0 1 1.6 1.6v2.4a1.6 1.6 0 0 1-1.6 1.6h-2.4a1.6 1.6 0 0 1-1.6-1.6v-2.4zm1.6-.8a.8.8 0 0 0-.8.8v2.4a.8.8 0 0 0 .8.8h2.4a.8.8 0 0 0 .8-.8v-2.4a.8.8 0 0 0-.8-.8h-2.4zM4 7.2h1.04A2.16 2.16 0 0 0 7.2 5.04V4H10a2 2 0 0 1 2 2v2.8h-1.04a2.16 2.16 0 0 0-2.16 2.16V12H6a2 2 0 0 1-2-2V7.2zM.8 2.4A1.6 1.6 0 0 1 2.4.8h2.4a1.6 1.6 0 0 1 1.6 1.6v2.4a1.6 1.6 0 0 1-1.6 1.6H2.4A1.6 1.6 0 0 1 .8 4.8V2.4zm1.6-.8a.8.8 0 0 0-.8.8v2.4a.8.8 0 0 0 .8.8h2.4a.8.8 0 0 0 .8-.8V2.4a.8.8 0 0 0-.8-.8H2.4z"/></svg>