<svg width="16" height="16" viewBox="0 0 16 16" xmlns="http://www.w3.org/2000/svg" fill="currentColor"><path d="M7.8 5.2a.6.6 0 1 0 0-1.2.6.6 0 0 0 0 1.2zm2.4.8a.6.6 0 1 0 0-1.2.6.6 0 0 0 0 1.2zm2 1.2a.6.6 0 1 1-1.2 0 .6.6 0 0 1 1.2 0zm-.6 3a.6.6 0 1 0 0-1.2.6.6 0 0 0 0 1.2zm-1 1a.6.6 0 1 1-1.2 0 .6.6 0 0 1 1.2 0zm.358-8.807c-2.204-1.132-4.443-1.023-6.342.14-.969.594-2.013 1.842-2.603 3.114-.297.64-.494 1.317-.491 1.948.002.64.214 1.252.75 1.69.488.397.913.597 1.325.618.414.02.737-.148.99-.297l.158-.095c.194-.117.353-.214.551-.277.226-.071.51-.098.925.029a.6.6 0 0 1 .309.195.93.93 0 0 1 .164.373c.042.17.064.371.08.608l.02.295c.008.154.017.318.03.469.043.537.136 1.149.459 1.706.331.57.88 1.042 1.763 1.344 1.281.438 2.453.082 3.364-.64.901-.713 1.565-1.792 1.897-2.871 1.052-3.419-.169-6.715-3.35-8.349zm-5.924.822c1.651-1.012 3.593-1.12 5.558-.11 2.806 1.441 3.899 4.32 2.95 7.402-.292.951-.875 1.883-1.628 2.48-.744.588-1.635.842-2.61.509-.722-.248-1.107-.606-1.33-.99-.23-.396-.312-.861-.353-1.368-.012-.152-.02-.288-.028-.427a22.625 22.625 0 0 0-.02-.328 4.54 4.54 0 0 0-.101-.74 1.718 1.718 0 0 0-.32-.688 1.398 1.398 0 0 0-.698-.457c-.56-.172-1.012-.15-1.4-.027-.3.096-.558.254-.757.376l-.116.07c-.228.135-.378.195-.545.187-.17-.009-.434-.094-.858-.44-.309-.251-.454-.61-.456-1.073-.002-.472.149-1.03.417-1.607.538-1.162 1.489-2.275 2.295-2.769z"/></svg>