<svg width="16" height="16" viewBox="0 0 16 16" xmlns="http://www.w3.org/2000/svg" fill="currentColor"><path d="M1.831 10a.5.5 0 0 1 .496.432l.004.068v2.335l.005.085c.04.392.351.704.743.744l.086.004h2.333l.068.005a.5.5 0 0 1 0 .99l-.068.005H3.165l-.112-.003a1.834 1.834 0 0 1-1.718-1.714l-.004-.116V10.5l.005-.068A.5.5 0 0 1 1.83 10zm12.334 0a.5.5 0 0 1 .495.432l.005.068v2.335c0 .975-.761 1.772-1.722 1.83l-.112.003h-2.333a.5.5 0 0 1-.068-.995l.068-.005h2.333a.833.833 0 0 0 .83-.748l.004-.085V10.5a.5.5 0 0 1 .5-.5zm-5.995.333a.5.5 0 0 1 .068.996l-.068.004H5.167a.5.5 0 0 1-.068-.995l.068-.005H8.17zM10.833 7.5a.5.5 0 0 1 .068.995l-.068.005H5.167a.5.5 0 0 1-.068-.995l.068-.005h5.666zM5.498 1.333a.5.5 0 0 1 .068.996l-.068.004H3.165a.833.833 0 0 0-.83.748l-.004.086v2.335a.5.5 0 0 1-.995.067l-.005-.067V3.167c0-.975.761-1.773 1.722-1.83l.112-.004h2.333zm7.333 0l.112.004c.922.055 1.66.792 1.718 1.714l.004.116v2.335l-.005.067a.5.5 0 0 1-.99 0l-.005-.067V3.167l-.005-.086a.834.834 0 0 0-.744-.743l-.085-.005h-2.333l-.068-.004a.5.5 0 0 1 0-.991l.068-.005h2.333zm-1.998 3.334a.5.5 0 0 1 .068.995l-.068.005H5.167a.5.5 0 0 1-.068-.996l.068-.004h5.666z"/></svg>