<svg width="16" height="16" viewBox="0 0 16 16" xmlns="http://www.w3.org/2000/svg" fill="currentColor"><path d="M7.997 12.674a.5.5 0 0 1 .496.432l.004.068v1a.5.5 0 0 1-.995.068l-.005-.068v-1a.5.5 0 0 1 .5-.5zm4.015-1.382l.707.707a.5.5 0 1 1-.707.707l-.707-.707a.5.5 0 0 1 .707-.707zm-7.322 0a.5.5 0 0 1 0 .707l-.707.707a.5.5 0 1 1-.707-.707l.707-.707a.5.5 0 0 1 .707 0zM8 4.317a3.683 3.683 0 1 1 0 7.366 3.683 3.683 0 0 1 0-7.366zm0 1a2.683 2.683 0 1 0 0 5.366 2.683 2.683 0 0 0 0-5.366zM7.5 6a.5.5 0 0 1 .495.432L8 6.5v1.502h.833a.5.5 0 0 1 .496.433l.004.067a.5.5 0 0 1-.432.496l-.068.004H7.5a.5.5 0 0 1-.495-.432L7 8.502V6.5a.5.5 0 0 1 .5-.5zm6.666 1.512a.5.5 0 0 1 .068.996l-.068.004h-1a.5.5 0 0 1-.067-.995l.067-.005h1zM2.834 7.493a.5.5 0 0 1 .067.995l-.067.005h-1a.5.5 0 0 1-.068-.995l.067-.005h1zm1.093-4.247l.056.048.707.707a.5.5 0 0 1-.651.756l-.056-.049-.707-.707a.5.5 0 0 1 .65-.755zm8.792.048a.5.5 0 0 1 .048.651l-.048.056-.707.707a.5.5 0 0 1-.756-.65L11.305 4l.707-.707a.5.5 0 0 1 .707 0zM8 1.326a.5.5 0 0 1 .496.432l.004.068v1a.5.5 0 0 1-.995.068L7.5 2.826v-1a.5.5 0 0 1 .5-.5z"/></svg>