<svg width="16" height="16" viewBox="0 0 16 16" xmlns="http://www.w3.org/2000/svg" fill="currentColor"><path d="M3.586 4.414L1.414 6.586a2 2 0 0 0 0 2.828l2.172 2.172a2 2 0 0 0 2.828 0l2.172-2.172a2 2 0 0 0 0-2.828L6.414 4.414a2 2 0 0 0-2.828 0zM2.12 7.293L4.293 5.12a1 1 0 0 1 1.414 0L7.88 7.293a1 1 0 0 1 0 1.414L5.707 10.88a1 1 0 0 1-1.414 0L2.12 8.707a1 1 0 0 1 0-1.414zm7.465 4.293l-.879-.879.586-.586c.04-.04.08-.082.118-.124l.882.882a1 1 0 0 0 1.414 0l2.172-2.172a1 1 0 0 0 0-1.414L11.707 5.12a1 1 0 0 0-1.414 0l-.882.882a3.053 3.053 0 0 0-.118-.124l-.586-.586.879-.879a2 2 0 0 1 2.828 0l2.172 2.172a2 2 0 0 1 0 2.828l-2.172 2.172a2 2 0 0 1-2.828 0z"/></svg>