<svg width="16" height="16" viewBox="0 0 16 16" xmlns="http://www.w3.org/2000/svg" fill="currentColor"><path d="M.8 2.4A1.6 1.6 0 0 1 2.4.8h2.4a1.6 1.6 0 0 1 1.6 1.6v.8H6c-.136 0-.27.01-.4.028V2.4a.8.8 0 0 0-.8-.8H2.4a.8.8 0 0 0-.8.8v2.4a.8.8 0 0 0 .8.8h.828A2.92 2.92 0 0 0 3.2 6v.4h-.8A1.6 1.6 0 0 1 .8 4.8V2.4zm8.8 10.4v.8a1.6 1.6 0 0 0 1.6 1.6h2.4a1.6 1.6 0 0 0 1.6-1.6v-2.4a1.6 1.6 0 0 0-1.6-1.6h-.8v.4c0 .136-.01.27-.028.4h.828a.8.8 0 0 1 .8.8v2.4a.8.8 0 0 1-.8.8h-2.4a.8.8 0 0 1-.8-.8v-.828a2.92 2.92 0 0 1-.4.028h-.4zM4 6a2 2 0 0 1 2-2h4a2 2 0 0 1 2 2v4a2 2 0 0 1-2 2H6a2 2 0 0 1-2-2V6z"/></svg>