<svg width="16" height="16" viewBox="0 0 16 16" xmlns="http://www.w3.org/2000/svg" fill="currentColor"><path d="M5.166 3.453a.5.5 0 0 1-.094.701 4.834 4.834 0 0 0 2.4 8.65l-.452-.45a.5.5 0 0 1 .651-.756l.056.048 1.334 1.334a.5.5 0 0 1 .048.65l-.048.057-1.334 1.333a.5.5 0 0 1-.755-.65l.048-.057.5-.5A5.834 5.834 0 0 1 4.466 3.36a.5.5 0 0 1 .7.094zM8.98.98a.5.5 0 0 1 0 .707l-.5.5a5.834 5.834 0 0 1 3.233 10.312.5.5 0 1 1-.637-.77A4.834 4.834 0 0 0 8.53 3.195l.45.45a.5.5 0 1 1-.707.708L6.939 3.02a.5.5 0 0 1 0-.707L8.273.98a.5.5 0 0 1 .707 0z"/></svg>