<svg width="16" height="16" viewBox="0 0 16 16" xmlns="http://www.w3.org/2000/svg" fill="currentColor"><path d="M8 1.167c1.155 0 2.1.904 2.163 2.043l.004.123h3.5a.5.5 0 0 1 .068.996l-.068.004h-.531l-.853 8.68a1.834 1.834 0 0 1-1.708 1.65l-.117.004H5.542a1.833 1.833 0 0 1-1.81-1.538l-.015-.116-.854-8.68h-.53a.5.5 0 0 1-.495-.432l-.005-.068a.5.5 0 0 1 .432-.495l.068-.005h3.5c0-1.196.97-2.166 2.167-2.166zm4.131 3.166H3.868l.845 8.582a.832.832 0 0 0 .744.747l.085.005h4.916c.4 0 .74-.284.817-.668l.012-.084.844-8.582zM9.167 6.167a.5.5 0 0 1 .495.432l.005.068v4.666a.5.5 0 0 1-.996.068l-.004-.068V6.667a.5.5 0 0 1 .5-.5zm-2.334 0a.5.5 0 0 1 .496.432l.004.068v4.666a.5.5 0 0 1-.995.068l-.005-.068V6.667a.5.5 0 0 1 .5-.5zm1.167-4c-.612 0-1.114.471-1.163 1.07l-.004.096h2.334c0-.644-.523-1.166-1.167-1.166z"/></svg>